<?xml version="1.0" encoding="UTF-8" standalone="no"?>
<svg
   xmlns:dc="http://purl.org/dc/elements/1.1/"
   xmlns:cc="http://creativecommons.org/ns#"
   xmlns:rdf="http://www.w3.org/1999/02/22-rdf-syntax-ns#"
   xmlns:svg="http://www.w3.org/2000/svg"
   xmlns="http://www.w3.org/2000/svg"
   xmlns:sodipodi="http://sodipodi.sourceforge.net/DTD/sodipodi-0.dtd"
   xmlns:inkscape="http://www.inkscape.org/namespaces/inkscape"
   inkscape:export-ydpi="96"
   inkscape:export-xdpi="96"
   inkscape:export-filename="C:\Users\user\work\repos\futuota\html\imgs\cover.png"
   sodipodi:docname="cover.svg"
   inkscape:version="1.0 (4035a4fb49, 2020-05-01)"
   id="svg8"
   version="1.1"
   viewBox="0 0 158.75 83.079169"
   height="314"
   width="600">
  <defs
     id="defs2">
    <rect
       id="rect835"
       height="171.60119"
       width="182.94048"
       y="7.1815476"
       x="5.6696429" />
    <rect
       x="5.6696429"
       y="7.1815476"
       width="182.94048"
       height="171.6012"
       id="rect835-9" />
    <rect
       x="5.6696429"
       y="7.1815476"
       width="182.94048"
       height="171.6012"
       id="rect848" />
    <rect
       id="rect835-9-0"
       height="171.6012"
       width="182.94048"
       y="7.1815476"
       x="5.6696429" />
    <rect
       id="rect905"
       height="171.6012"
       width="182.94048"
       y="7.1815476"
       x="5.6696429" />
  </defs>
  <sodipodi:namedview
     inkscape:window-maximized="0"
     inkscape:window-y="0"
     inkscape:window-x="2435"
     inkscape:window-height="1040"
     inkscape:window-width="1432"
     borderlayer="true"
     units="px"
     showgrid="false"
     inkscape:document-rotation="0"
     inkscape:current-layer="layer1"
     inkscape:document-units="mm"
     inkscape:cy="372.67836"
     inkscape:cx="247.55306"
     inkscape:zoom="0.7"
     inkscape:pageshadow="2"
     inkscape:pageopacity="0.0"
     borderopacity="1.0"
     bordercolor="#666666"
     pagecolor="#ffffff"
     id="base" />
  <metadata
     id="metadata5">
    <rdf:RDF>
      <cc:Work
         rdf:about="">
        <dc:format>image/svg+xml</dc:format>
        <dc:type
           rdf:resource="http://purl.org/dc/dcmitype/StillImage" />
        <dc:title></dc:title>
      </cc:Work>
    </rdf:RDF>
  </metadata>
  <g
     id="layer1"
     inkscape:groupmode="layer"
     inkscape:label="レイヤー 1">
    <rect
       y="-6.4255953"
       x="-5.2916665"
       height="96.761909"
       width="170.84525"
       id="rect868"
       style="opacity:0.98;fill:#c8c4b7;stroke-width:0.556001;stroke-linecap:round" />
    <text
       transform="translate(22.678571,17.008929)"
       style="font-style:normal;font-weight:normal;font-size:10.5833px;line-height:1.25;font-family:sans-serif;letter-spacing:0px;word-spacing:0px;white-space:pre;shape-inside:url(#rect835);fill:#000000;fill-opacity:1;stroke:none;"
       id="text833"
       xml:space="preserve"><tspan
         x="5.6699219"
         y="32.20064"><tspan
           style="font-style:normal;font-variant:normal;font-weight:bold;font-stretch:normal;font-size:25.4px;font-family:'M+ 1mn';-inkscape-font-specification:'M+ 1mn, Bold';font-variant-ligatures:normal;font-variant-caps:normal;font-variant-numeric:normal;font-variant-east-asian:normal">ふつおた</tspan></tspan></text>
    <text
       xml:space="preserve"
       id="text833-3"
       style="font-style:normal;font-variant:normal;font-weight:300;font-stretch:normal;font-size:9.87778px;line-height:1.25;font-family:'M+ 1mn';-inkscape-font-specification:'M+ 1mn, Light';font-variant-ligatures:normal;font-variant-caps:normal;font-variant-numeric:normal;font-variant-east-asian:normal;letter-spacing:0px;word-spacing:0px;white-space:pre;shape-inside:url(#rect835-9);fill:#000000;fill-opacity:1;stroke:none;"
       transform="translate(3.6978424,55.616231)"><tspan
         x="5.6699219"
         y="16.911254"><tspan
           style="font-style:normal;font-variant:normal;font-weight:300;font-stretch:normal;font-size:9.87778px;font-family:'M+ 1mn';-inkscape-font-specification:'M+ 1mn, Light';font-variant-ligatures:normal;font-variant-caps:normal;font-variant-numeric:normal;font-variant-east-asian:normal">あなたにお</tspan><tspan
           style="font-style:normal;font-variant:normal;font-weight:300;font-stretch:normal;font-size:9.87778px;font-family:'M+ 1mn';-inkscape-font-specification:'M+ 1mn, Light';font-variant-ligatures:normal;font-variant-caps:normal;font-variant-numeric:normal;font-variant-east-asian:normal">便</tspan><tspan
           style="font-style:normal;font-variant:normal;font-weight:300;font-stretch:normal;font-size:9.87778px;font-family:'M+ 1mn';-inkscape-font-specification:'M+ 1mn, Light';font-variant-ligatures:normal;font-variant-caps:normal;font-variant-numeric:normal;font-variant-east-asian:normal">りが</tspan><tspan
           style="font-style:normal;font-variant:normal;font-weight:300;font-stretch:normal;font-size:9.87778px;font-family:'M+ 1mn';-inkscape-font-specification:'M+ 1mn, Light';font-variant-ligatures:normal;font-variant-caps:normal;font-variant-numeric:normal;font-variant-east-asian:normal">届</tspan><tspan
           style="font-style:normal;font-variant:normal;font-weight:300;font-stretch:normal;font-size:9.87778px;font-family:'M+ 1mn';-inkscape-font-specification:'M+ 1mn, Light';font-variant-ligatures:normal;font-variant-caps:normal;font-variant-numeric:normal;font-variant-east-asian:normal">いています！</tspan><tspan
           style="font-style:normal;font-variant:normal;font-weight:300;font-stretch:normal;font-size:9.87778px;font-family:'M+ 1mn';-inkscape-font-specification:'M+ 1mn, Light';font-variant-ligatures:normal;font-variant-caps:normal;font-variant-numeric:normal;font-variant-east-asian:normal">
</tspan></tspan></text>
    <g
       transform="rotate(18.227403,146.44665,28.178685)"
       id="g894">
      <rect
         style="opacity:0.98;fill:#ffffff;fill-opacity:1;stroke-width:0.556001;stroke-linecap:round"
         id="rect888"
         width="27.59226"
         height="21.355656"
         x="122.36979"
         y="8.3154764" />
      <g
         style="opacity:1"
         id="g886"
         transform="matrix(0.05954792,0,0,0.05954792,121.2549,3.6545414)">
        <g
           id="g874">
	<path
   id="path872"
   style="fill:#4b4b4b"
   d="M 510.678,112.275 C 508.37,100.649 503.215,90.01 496.016,81.221 494.498,79.306 492.912,77.591 491.193,75.876 478.438,63.058 460.536,55.062 440.979,55.062 H 71.021 c -19.557,0 -37.395,7.996 -50.21,20.814 -1.715,1.715 -3.301,3.43 -4.823,5.345 C 8.785,90.009 3.63,100.649 1.386,112.275 0.464,116.762 0,121.399 0,126.087 V 385.92 c 0,9.968 2.114,19.55 5.884,28.203 3.497,8.26 8.653,15.734 14.926,22.001 1.59,1.586 3.169,3.044 4.892,4.494 12.286,10.175 28.145,16.32 45.319,16.32 h 369.958 c 17.18,0 33.108,-6.145 45.323,-16.384 1.718,-1.386 3.305,-2.844 4.891,-4.43 6.27,-6.267 11.425,-13.741 14.994,-22.001 v -0.064 c 3.769,-8.653 5.812,-18.171 5.812,-28.138 V 126.087 c 10e-4,-4.688 -0.456,-9.325 -1.321,-13.812 z M 46.509,101.571 C 52.854,95.233 61.375,91.396 71.021,91.396 h 369.958 c 9.646,0 18.242,3.837 24.512,10.175 1.122,1.129 2.179,2.387 3.112,3.637 L 274.696,274.203 c -5.348,4.687 -11.954,7.002 -18.696,7.002 -6.674,0 -13.276,-2.315 -18.695,-7.002 L 43.472,105.136 c 0.858,-1.25 1.915,-2.436 3.037,-3.565 z M 36.334,385.92 V 142.735 L 176.658,265.15 36.405,387.435 c -0.071,-0.464 -0.071,-0.986 -0.071,-1.515 z m 404.645,34.677 H 71.021 c -6.281,0 -12.158,-1.651 -17.174,-4.552 l 147.978,-128.959 13.815,12.018 c 11.561,10.046 26.028,15.134 40.36,15.134 14.406,0 28.872,-5.088 40.432,-15.134 l 13.808,-12.018 147.92,128.959 c -5.023,2.901 -10.9,4.552 -17.181,4.552 z m 34.687,-34.677 c 0,0.529 0,1.051 -0.068,1.515 L 335.346,265.221 475.666,142.8 Z"
   class="st0" />

</g>
      </g>
    </g>
    <text
       transform="rotate(-9.425549,47.613411,36.934683)"
       style="font-style:normal;font-variant:normal;font-weight:300;font-stretch:normal;font-size:9.87778px;line-height:1.25;font-family:'M+ 1mn';-inkscape-font-specification:'M+ 1mn, Light';font-variant-ligatures:normal;font-variant-caps:normal;font-variant-numeric:normal;font-variant-east-asian:normal;letter-spacing:0px;word-spacing:0px;white-space:pre;shape-inside:url(#rect835-9-0);fill:#000000;fill-opacity:1;stroke:none;"
       id="text833-3-8"
       xml:space="preserve"><tspan
         x="5.6699219"
         y="16.911254"><tspan
           style="font-style:normal;font-variant:normal;font-weight:normal;font-stretch:normal;font-size:6.35px;font-family:'M+ 1mn';-inkscape-font-specification:'M+ 1mn, Normal';font-variant-ligatures:normal;font-variant-caps:normal;font-variant-numeric:normal;font-variant-east-asian:normal">AI</tspan><tspan
           style="font-style:normal;font-variant:normal;font-weight:normal;font-stretch:normal;font-size:6.35px;font-family:'M+ 1mn';-inkscape-font-specification:'M+ 1mn, Normal';font-variant-ligatures:normal;font-variant-caps:normal;font-variant-numeric:normal;font-variant-east-asian:normal">があなたに「ふつおた」を</tspan><tspan
           style="font-style:normal;font-variant:normal;font-weight:normal;font-stretch:normal;font-size:6.35px;font-family:'M+ 1mn';-inkscape-font-specification:'M+ 1mn, Normal';font-variant-ligatures:normal;font-variant-caps:normal;font-variant-numeric:normal;font-variant-east-asian:normal">自動生成！</tspan></tspan></text>
  </g>
  <style
     type="text/css"
     id="style870">
	.st0{fill:#4B4B4B;}
</style>
</svg>
